<svg viewBox="0 0 566 80" fill="none" xmlns="http://www.w3.org/2000/svg">
<path d="M22.4272 5.68945L9.46306 18.9625H45.9721C52.3783 18.9625 55.5814 18.9625 57.5669 20.9663C59.5524 22.9702 59.5418 26.1921 59.5207 32.6361L59.4164 64.4701H23.1289C17.8345 64.4708 15.7067 58.1109 19.3566 54.8796L38.8233 37.6453C38.9604 37.5239 39.0921 37.5002 39.265 37.5788C39.4379 37.6574 39.5072 37.7403 39.5072 37.9241V63.6441L52.8188 50.3319V37.9241C52.8188 26.2168 38.8964 20.0087 30.1596 27.7436L10.6929 44.9778C-2.3566 56.5308 6.17926 77.7447 23.1306 77.7432L59.4164 77.7433L72.6116 64.4702L59.4164 64.4701L72.6116 51.6918V36.0279C72.6116 21.7262 72.6116 14.5754 68.1947 10.1324C63.7778 5.68945 56.6689 5.68945 42.4511 5.68945H22.4272Z" fill="#FD4305"/>
<path d="M544.513 23.1893H560.107V74.8849H544.513V23.1893Z" fill="#192732"/>
<path d="M560.107 4.49854H544.513V17.102H560.107V4.49854Z" fill="#FD4305"/>
<path d="M529.642 75.9457C527.008 75.9457 524.8 75.8389 523.02 75.6253C521.24 75.4117 519.46 74.9844 517.68 74.3436C515.686 73.7027 514.048 72.8126 512.766 71.6734C511.556 70.5341 510.559 68.9675 509.776 66.9738C508.921 64.9088 508.494 62.5234 508.494 59.8175V32.7948H498.027V23.182H508.494V8.22876H524.088V23.182H538.294V32.7948H524.088V57.1473C524.088 59.6395 524.302 61.5265 524.729 62.8082C525.156 64.0187 525.975 64.9088 527.186 65.4784C528.396 65.9769 530.248 66.2261 532.74 66.2261C533.737 66.2261 535.588 66.0481 538.294 65.692V75.4117C534.947 75.7677 532.063 75.9457 529.642 75.9457Z" fill="#192732"/>
<path d="M461.421 75.953C454.799 75.953 450.135 74.7781 447.429 72.4283C444.795 70.0073 443.478 66.2334 443.478 61.1066V23.1893H459.072V58.9704C459.072 60.9641 459.25 62.4595 459.606 63.4564C460.033 64.4532 460.816 65.1653 461.956 65.5925C463.166 66.0198 464.982 66.2334 467.403 66.2334C470.465 66.2334 472.708 66.0554 474.132 65.6993C475.556 65.2721 476.517 64.56 477.016 63.5632C477.514 62.5663 477.763 61.0353 477.763 58.9704V23.1893H493.357V74.8849H477.977V68.5832C476.838 73.4964 471.319 75.953 461.421 75.953Z" fill="#192732"/>
<path d="M404.228 23.1891H419.074V32.2678C419.074 30.6301 419.751 29.028 421.104 27.4614C422.457 25.8949 424.166 24.6132 426.231 23.6163C428.367 22.6194 430.467 22.121 432.532 22.121H438.087V35.0449H432.746C428.331 35.0449 425.056 35.7213 422.92 37.0742C420.855 38.4272 419.822 40.6701 419.822 43.8032V74.8847H404.228V23.1891Z" fill="#192732"/>
<path d="M349.754 0.116455H365.348V74.8828H349.754V0.116455ZM365.989 45.8307L382.972 23.1872H400.809L382.865 45.7239L402.304 74.8828H384.68L365.989 45.8307Z" fill="#192732"/>
<path d="M289.433 0.116455H305.027V29.489C306.024 24.5757 311.471 22.1191 321.369 22.1191C327.991 22.1191 332.62 23.3296 335.254 25.7506C337.96 28.1004 339.313 31.8388 339.313 36.9656V74.8828H323.719V38.7813C323.719 36.7876 323.505 35.3279 323.078 34.4022C322.722 33.4053 321.974 32.7288 320.835 32.3728C319.696 31.9456 317.88 31.7319 315.388 31.7319C312.326 31.7319 310.083 31.91 308.659 32.266C307.235 32.622 306.273 33.2985 305.775 34.2954C305.276 35.221 305.027 36.7164 305.027 38.7813V74.8828H289.433V0.116455Z" fill="#192732"/>
<path d="M255.854 75.9527C250.3 75.9527 243.5 75.4187 235.454 74.3506V63.9901C245.351 65.4855 252.223 66.2331 256.068 66.2331C259.343 66.2331 261.764 65.9127 263.331 65.2718C264.898 64.631 265.681 63.4561 265.681 61.7471V58.5429C265.681 56.7627 265.182 55.5166 264.185 54.8046C263.189 54.0213 261.23 53.6296 258.311 53.6296H251.582C246.099 53.6296 241.862 52.5616 238.872 50.4254C235.881 48.218 234.386 45.0137 234.386 40.8126V34.5108C234.386 30.0248 236.522 26.8562 240.794 25.0048C245.067 23.0823 251.511 22.121 260.127 22.121C263.545 22.121 269.668 22.4414 278.498 23.0823V33.0155C267.39 32.161 261.124 31.7338 259.699 31.7338C255.498 31.7338 252.757 32.0186 251.475 32.5883C250.336 33.2291 249.766 34.404 249.766 36.113V38.89C249.766 39.8157 250.229 40.6345 251.155 41.3466C252.08 41.9875 253.433 42.3079 255.214 42.3079H262.049C274.724 42.3079 281.061 46.4378 281.061 54.6977V61.2131C281.061 63.7053 280.598 65.8771 279.673 67.7285C278.747 69.5798 277.537 71.0395 276.041 72.1076C274.617 73.1045 272.766 73.8878 270.487 74.4574C268.28 75.0271 265.966 75.4187 263.545 75.6323C261.337 75.8459 258.774 75.9527 255.854 75.9527Z" fill="#192732"/>
<path d="M210.009 23.1893H225.603V74.8849H210.009V23.1893Z" fill="#192732"/>
<path d="M151.503 23.1893H168.059L179.381 58.9704L190.275 23.1893H205.976L186.964 74.8849H171.156L151.503 23.1893Z" fill="#192732"/>
<path d="M115.887 75.9527C111.045 75.9527 107.413 75.5255 104.992 74.671C102.642 73.7454 100.969 72.1432 99.972 69.8646C99.0463 67.5148 98.5835 64.0257 98.5835 59.3973C98.5835 55.2674 99.0819 52.0275 100.079 49.6777C101.147 47.3279 102.82 45.6546 105.099 44.6577C107.449 43.5896 110.653 43.0556 114.712 43.0556H132.228V39.5308C132.228 37.3235 131.908 35.6857 131.267 34.6176C130.697 33.5495 129.594 32.8019 127.956 32.3746C126.389 31.9474 124.004 31.7338 120.8 31.7338C116.385 31.7338 110.332 32.161 102.642 33.0155V23.1891C108.268 22.477 114.854 22.121 122.402 22.121C129.024 22.121 134.115 22.6194 137.676 23.6163C141.307 24.6132 143.906 26.3221 145.473 28.7431C147.039 31.1641 147.822 34.6888 147.822 39.3172V74.8847H132.549V70.1851C131.338 72.25 129.701 73.7098 127.636 74.5642C125.571 75.4899 121.654 75.9527 115.887 75.9527ZM121.975 66.2331C125.108 66.2331 127.351 66.1263 128.704 65.9127C129.701 65.7703 130.377 65.5567 130.733 65.2718C131.16 64.987 131.516 64.5242 131.801 63.8833C132.086 63.3849 132.228 62.6372 132.228 61.6403V51.6003H121.547C119.126 51.6003 117.417 51.7783 116.421 52.1343C115.424 52.4191 114.747 53.06 114.391 54.0569C114.035 54.9826 113.857 56.6559 113.857 59.0769C113.857 61.4267 114.035 63.0644 114.391 63.9901C114.747 64.9158 115.424 65.5211 116.421 65.8059C117.489 66.0907 119.34 66.2331 121.975 66.2331Z" fill="#192732"/>
<path d="M225.603 4.49792H210.009V17.1014H225.603V4.49792Z" fill="#FD4305"/>
</svg>